<!DOCTYPE svg PUBLIC "-//W3C//DTD SVG 1.1//EN" "http://www.w3.org/Graphics/SVG/1.1/DTD/svg11.dtd">
<!-- Uploaded to: SVG Repo, www.svgrepo.com, Transformed by: SVG Repo Mixer Tools -->
<svg width="800px" height="800px" viewBox="0 0 24 24" xmlns="http://www.w3.org/2000/svg" fill="#000000">
<g id="SVGRepo_bgCarrier" stroke-width="0"/>
<g id="SVGRepo_tracerCarrier" stroke-linecap="round" stroke-linejoin="round"/>
<g id="SVGRepo_iconCarrier"> <path fill="none" stroke="#1c2d3d" stroke-width="2" d="M5,19 C7.209139,19 9,17.209139 9,15 C9,12.790861 7.209139,11 5,11 C2.790861,11 1,12.790861 1,15 C1,17.209139 2.790861,19 5,19 Z M19,19 C21.209139,19 23,17.209139 23,15 C23,12.790861 21.209139,11 19,11 C16.790861,11 15,12.790861 15,15 C15,17.209139 16.790861,19 19,19 Z M5,6 L10,6 M19,15 L16,5 L13,5 M9,9 L5,15 L12,15 C12,12 14,9 17,9 L16,9 L9,9 Z M9,9 L7,6"/> </g>
</svg>