<!DOCTYPE svg PUBLIC "-//W3C//DTD SVG 1.1//EN" "http://www.w3.org/Graphics/SVG/1.1/DTD/svg11.dtd">
<!-- Uploaded to: SVG Repo, www.svgrepo.com, Transformed by: SVG Repo Mixer Tools -->
<svg fill="#1c2d3d" height="800px" width="800px" version="1.1" id="Layer_1" xmlns="http://www.w3.org/2000/svg" xmlns:xlink="http://www.w3.org/1999/xlink" viewBox="0 0 512 512" xml:space="preserve" stroke="#1c2d3d">
<g id="SVGRepo_bgCarrier" stroke-width="0"/>
<g id="SVGRepo_tracerCarrier" stroke-linecap="round" stroke-linejoin="round"/>
<g id="SVGRepo_iconCarrier"> <g> <g> <path d="M511.991,81.608h-14.724H372.966h-14.724v30.417h14.724V449.85c0,34.27,27.881,62.15,62.15,62.15s62.15-27.88,62.15-62.15 V112.025h14.724L511.991,81.608L511.991,81.608z M466.85,449.85c0,17.498-14.235,31.733-31.733,31.733 c-17.498,0-31.733-14.235-31.733-31.733v-28.583h37.988v-30.417h-37.988v-20.278h37.988v-30.417h-37.988v-20.278h37.988v-30.417 h-37.988v-20.278h37.988v-30.417h-37.988v-20.278h37.988v-30.417h-37.988V167.79h37.988v-30.417h-37.988v-25.348h63.466V449.85z"/> </g> </g> <g> <g> <path d="M331.511,437.24l-98.983-133.73V30.417h14.723V0h-14.723H108.228H93.504v30.417h14.724V303.51L9.246,437.24 c-10.593,14.312-12.196,33.08-4.182,48.982C13.078,502.123,29.117,512,46.923,512h246.912c17.806,0,33.845-9.878,41.858-25.779 C343.706,470.321,342.104,451.553,331.511,437.24z M138.645,313.541v-24.578h37.988v-30.417h-37.988v-20.278h37.988v-30.417 h-37.988v-20.278h37.988v-30.417h-37.988v-20.278h37.988V106.46h-37.988V86.182h37.988V55.765h-37.988V30.417h63.466v283.125 l14.963,20.215h-93.393L138.645,313.541z M308.53,472.533c-2.856,5.667-8.349,9.05-14.695,9.05H46.922 c-6.346,0-11.839-3.383-14.695-9.05c-2.856-5.667-2.307-12.096,1.468-17.196l67.473-91.161h138.419l67.473,91.161 C310.837,460.437,311.386,466.865,308.53,472.533z"/> </g> </g> </g>
</svg>